<svg version="1.1" id="Layer_1" xmlns="http://www.w3.org/2000/svg" xmlns:xlink="http://www.w3.org/1999/xlink" x="0px" y="0px"
	 width="100%" viewBox="0 0 1024 1024" enable-background="new 0 0 1024 1024" xml:space="preserve">
"/>
<path fill="#030303" opacity="1.000000" stroke="none" 
	d="
M377.000061,322.179352 
	C395.470978,322.179108 413.441895,322.179108 431.889923,322.179108 
	C431.889923,454.558197 431.889923,586.590698 431.889923,719.100098 
	C404.490540,719.100098 376.813507,719.100098 348.937500,719.100098 
	C348.937500,586.867004 348.937500,454.792480 348.937500,322.179596 
	C358.276703,322.179596 367.388367,322.179596 377.000061,322.179352 
M396.974091,416.500000 
	C396.974091,404.886261 396.974091,393.272552 396.974091,381.498901 
	C401.161224,381.294098 404.885254,381.111908 409.030670,380.909149 
	C409.030670,369.708649 409.127747,359.066559 408.888489,348.432098 
	C408.863068,347.302307 406.890747,345.283600 405.782471,345.256134 
	C395.462463,344.999847 385.133057,345.034027 374.809021,345.175171 
	C373.903595,345.187531 372.248108,346.546936 372.236725,347.300262 
	C372.069122,358.400360 372.121277,369.503754 372.121277,381.214783 
	C376.241791,381.214783 379.808624,381.214783 384.052551,381.214783 
	C384.052551,408.336090 384.052551,434.846527 384.052551,461.243530 
	C388.692505,461.243530 392.614105,461.243530 396.975891,461.243530 
	C396.975891,446.422638 396.975891,431.961334 396.974091,416.500000 
M396.905518,622.500000 
	C396.905518,610.386719 396.905518,598.273438 396.905518,585.823730 
	C392.375000,585.823730 388.308716,585.823730 383.650818,585.823730 
	C383.650818,610.595520 383.650818,635.131592 383.650818,660.165527 
	C379.489746,660.165527 375.910522,660.165527 372.294067,660.165527 
	C372.294067,672.366882 372.294067,684.055786 372.294067,696.074158 
	C383.821136,696.074158 394.943634,696.051086 406.065887,696.089294 
	C409.101685,696.099670 408.947723,694.118713 408.930756,692.013489 
	C408.866425,684.027100 408.863190,676.040161 408.838654,668.053467 
	C408.814148,660.073792 408.814789,660.088318 401.048218,660.008179 
	C399.776215,659.994995 398.506165,659.790344 396.906647,659.644104 
	C396.906647,647.397217 396.906647,635.448608 396.905518,622.500000 
z"/>
<path fill="#040404" opacity="1.000000" stroke="none" 
	d="
M531.417114,507.419922 
	C504.458221,532.840271 477.760925,558.026245 451.054321,583.220947 
	C451.054321,580.130676 451.048828,576.731812 451.055115,573.333008 
	C451.116364,540.175842 451.214569,507.018585 451.186371,473.861481 
	C451.183655,470.664581 451.928650,468.339325 454.355988,466.018585 
	C498.291168,424.013214 542.134277,381.911530 585.973572,339.805939 
	C593.384888,332.687714 600.136536,324.849518 610.619446,321.780548 
	C627.730164,316.771149 646.951721,322.251984 657.166931,335.441620 
	C668.030518,349.468414 669.597229,369.772095 660.613098,384.217682 
	C658.447327,387.700012 655.597473,390.878235 652.596863,393.701599 
	C612.339050,431.580902 571.998596,469.372314 531.417114,507.419922 
M561.597839,412.105621 
	C559.239868,414.381104 556.881958,416.656555 554.337402,419.112152 
	C557.441284,422.502747 560.192017,425.507507 563.006042,428.581451 
	C571.492798,420.551849 579.589294,412.894653 587.682190,405.233734 
	C595.780884,397.567352 603.925598,389.948395 611.938660,382.193542 
	C614.011963,380.187042 615.636902,379.417908 618.808411,380.401276 
	C629.732910,383.788605 641.188049,375.984833 642.081177,364.992493 
	C642.716248,357.175873 639.843140,351.019592 633.108276,346.866028 
	C626.202087,342.606842 619.411499,343.427032 613.024475,347.933868 
	C606.536377,352.512085 604.437805,358.934357 605.410339,366.740784 
	C605.642456,368.604156 604.835388,371.277344 603.515076,372.548981 
	C589.848267,385.711914 575.978210,398.663788 561.597839,412.105621 
z"/>
<path fill="#040404" opacity="1.000000" stroke="none" 
	d="
M588.495117,582.506592 
	C610.633606,604.182190 632.542175,625.587402 654.412720,647.031311 
	C671.235474,663.525940 672.175232,690.083801 656.567383,706.373474 
	C640.571350,723.068298 612.968689,723.975281 596.258301,707.668335 
	C556.693481,669.058533 517.427246,630.142944 478.050446,591.340576 
	C476.753845,590.062866 475.568390,588.672363 473.853973,586.818542 
	C494.094147,567.919861 514.223267,549.124878 534.924377,529.795776 
	C552.762268,547.343506 570.505554,564.798157 588.495117,582.506592 
M606.453003,673.907227 
	C606.420715,675.401672 606.252686,676.907593 606.378296,678.388611 
	C607.197388,688.050720 616.177917,695.732849 625.924988,695.172668 
	C635.912476,694.598633 643.544739,686.105957 643.026855,676.142883 
	C642.508484,666.172729 634.135254,657.851501 624.091858,659.317261 
	C617.383606,660.296326 613.681824,657.690186 609.742554,653.527222 
	C606.426758,650.023071 602.873535,646.741882 599.394592,643.394043 
	C593.327209,637.555237 587.236084,631.740967 580.939270,625.709839 
	C577.929077,628.955872 575.267151,631.826294 572.243896,635.086487 
	C573.838928,636.546143 575.194153,637.749146 576.508667,638.995178 
	C585.928955,647.924255 595.289246,656.917664 604.792480,665.757507 
	C607.134338,667.935852 608.303406,670.047546 606.453003,673.907227 
z"/>
</svg>
